<svg width="18" height="25" viewBox="0 0 18 25" fill="none" xmlns="http://www.w3.org/2000/svg">
<path d="M13.281 12.281C13.4218 12.1402 13.5009 11.9492 13.5009 11.75C13.5009 11.5508 13.4218 11.3598 13.281 11.219C13.1401 11.0782 12.9491 10.9991 12.75 10.9991C12.5508 10.9991 12.3598 11.0782 12.219 11.219L8.24997 15.1895L6.53097 13.469C6.39014 13.3282 6.19913 13.2491 5.99997 13.2491C5.80081 13.2491 5.6098 13.3282 5.46897 13.469C5.32814 13.6098 5.24902 13.8008 5.24902 14C5.24902 14.1992 5.32814 14.3902 5.46897 14.531L7.71897 16.781C7.78864 16.8508 7.8714 16.9063 7.96252 16.9441C8.05364 16.9819 8.15132 17.0013 8.24997 17.0013C8.34862 17.0013 8.4463 16.9819 8.53742 16.9441C8.62854 16.9063 8.7113 16.8508 8.78097 16.781L13.281 12.281Z" fill="white"/>
<path d="M18 21.5V7.25L11.25 0.5H3C2.20435 0.5 1.44129 0.816071 0.87868 1.37868C0.31607 1.94129 0 2.70435 0 3.5V21.5C0 22.2956 0.31607 23.0587 0.87868 23.6213C1.44129 24.1839 2.20435 24.5 3 24.5H15C15.7956 24.5 16.5587 24.1839 17.1213 23.6213C17.6839 23.0587 18 22.2956 18 21.5ZM11.25 5C11.25 5.59674 11.4871 6.16903 11.909 6.59099C12.331 7.01295 12.9033 7.25 13.5 7.25H16.5V21.5C16.5 21.8978 16.342 22.2794 16.0607 22.5607C15.7794 22.842 15.3978 23 15 23H3C2.60218 23 2.22064 22.842 1.93934 22.5607C1.65804 22.2794 1.5 21.8978 1.5 21.5V3.5C1.5 3.10218 1.65804 2.72064 1.93934 2.43934C2.22064 2.15804 2.60218 2 3 2H11.25V5Z" fill="white"/>
</svg>
