<svg width="20" height="21" viewBox="0 0 20 21" fill="none" xmlns="http://www.w3.org/2000/svg">
<path d="M6.25 10.5V9C6.25 8.80109 6.32902 8.61032 6.46967 8.46967C6.61032 8.32902 6.80109 8.25 7 8.25C7.19891 8.25 7.38968 8.32902 7.53033 8.46967C7.67098 8.61032 7.75 8.80109 7.75 9V10.5C7.75 10.6989 7.67098 10.8897 7.53033 11.0303C7.38968 11.171 7.19891 11.25 7 11.25C6.80109 11.25 6.61032 11.171 6.46967 11.0303C6.32902 10.8897 6.25 10.6989 6.25 10.5ZM10 11.25C10.1989 11.25 10.3897 11.171 10.5303 11.0303C10.671 10.8897 10.75 10.6989 10.75 10.5V8.25C10.75 8.05109 10.671 7.86032 10.5303 7.71967C10.3897 7.57902 10.1989 7.5 10 7.5C9.80109 7.5 9.61032 7.57902 9.46967 7.71967C9.32902 7.86032 9.25 8.05109 9.25 8.25V10.5C9.25 10.6989 9.32902 10.8897 9.46967 11.0303C9.61032 11.171 9.80109 11.25 10 11.25ZM13 11.25C13.1989 11.25 13.3897 11.171 13.5303 11.0303C13.671 10.8897 13.75 10.6989 13.75 10.5V7.5C13.75 7.30109 13.671 7.11032 13.5303 6.96967C13.3897 6.82902 13.1989 6.75 13 6.75C12.8011 6.75 12.6103 6.82902 12.4697 6.96967C12.329 7.11032 12.25 7.30109 12.25 7.5V10.5C12.25 10.6989 12.329 10.8897 12.4697 11.0303C12.6103 11.171 12.8011 11.25 13 11.25ZM18.25 4.5V13.5H19C19.1989 13.5 19.3897 13.579 19.5303 13.7197C19.671 13.8603 19.75 14.0511 19.75 14.25C19.75 14.4489 19.671 14.6397 19.5303 14.7803C19.3897 14.921 19.1989 15 19 15H10.75V16.629C11.2504 16.8059 11.6722 17.1541 11.9407 17.6119C12.2093 18.0697 12.3073 18.6077 12.2176 19.1308C12.1278 19.6539 11.856 20.1285 11.4502 20.4706C11.0444 20.8127 10.5308 21.0003 10 21.0003C9.46923 21.0003 8.95556 20.8127 8.54976 20.4706C8.14395 20.1285 7.87216 19.6539 7.7824 19.1308C7.69265 18.6077 7.79072 18.0697 8.05928 17.6119C8.32783 17.1541 8.74959 16.8059 9.25 16.629V15H1C0.801088 15 0.610322 14.921 0.46967 14.7803C0.329018 14.6397 0.25 14.4489 0.25 14.25C0.25 14.0511 0.329018 13.8603 0.46967 13.7197C0.610322 13.579 0.801088 13.5 1 13.5H1.75V4.5C1.35231 4.49955 0.971041 4.34137 0.689833 4.06017C0.408625 3.77896 0.250447 3.39769 0.25 3V1.5C0.250447 1.10231 0.408625 0.721041 0.689833 0.439833C0.971041 0.158625 1.35231 0.000446645 1.75 0H18.25C18.6477 0.000446645 19.029 0.158625 19.3102 0.439833C19.5914 0.721041 19.7496 1.10231 19.75 1.5V3C19.7496 3.39769 19.5914 3.77896 19.3102 4.06017C19.029 4.34137 18.6477 4.49955 18.25 4.5ZM10.75 18.75C10.75 18.6017 10.706 18.4567 10.6236 18.3333C10.5412 18.21 10.4241 18.1139 10.287 18.0571C10.15 18.0003 9.99917 17.9855 9.85368 18.0144C9.7082 18.0434 9.57456 18.1148 9.46967 18.2197C9.36478 18.3246 9.29335 18.4582 9.26441 18.6037C9.23547 18.7492 9.25032 18.9 9.30709 19.037C9.36386 19.1741 9.45998 19.2912 9.58332 19.3736C9.70666 19.456 9.85166 19.5 10 19.5C10.1988 19.4998 10.3895 19.4207 10.5301 19.2801C10.6707 19.1395 10.7498 18.9488 10.75 18.75ZM1.75 3H18.2509L18.25 1.5H1.75V3ZM16.75 4.5H3.25V13.5H16.75V4.5Z" fill="black"/>
</svg>
