<svg width="28" height="27" viewBox="0 0 28 27" fill="none" xmlns="http://www.w3.org/2000/svg">
<path d="M10.4275 25.9819C8.36004 25.3646 6.48761 24.2225 4.9925 22.6669C5.47355 22.0963 5.77342 21.3952 5.85374 20.6533C5.93407 19.9113 5.7912 19.1623 5.4434 18.502C5.09561 17.8417 4.55872 17.3002 3.90143 16.9468C3.24414 16.5934 2.49635 16.4441 1.75375 16.5181C1.58457 15.6894 1.49956 14.8458 1.5 14C1.5 12.6938 1.7 11.4337 2.0725 10.25H2.125C2.76235 10.2502 3.38923 10.088 3.94646 9.77859C4.50369 9.46922 4.97287 9.02293 5.30971 8.48187C5.64655 7.9408 5.83992 7.32281 5.87158 6.68625C5.90323 6.04969 5.77212 5.41556 5.49063 4.84375C6.956 3.47926 8.72816 2.48739 10.6575 1.95187C10.9715 2.56838 11.4499 3.086 12.0398 3.44747C12.6297 3.80894 13.3081 4.00017 14 4C14.6919 4.00017 15.3703 3.80894 15.9602 3.44747C16.5501 3.086 17.0285 2.56838 17.3425 1.95187C19.2718 2.48739 21.044 3.47926 22.5094 4.84375C22.2258 5.41957 22.0948 6.05853 22.1289 6.69947C22.163 7.34041 22.361 7.96188 22.704 8.50439C23.047 9.0469 23.5235 9.49229 24.0879 9.79793C24.6523 10.1036 25.2857 10.2592 25.9275 10.25C26.3081 11.4636 26.5012 12.7281 26.5 14C26.5 14.8625 26.4125 15.705 26.2463 16.5181C25.5037 16.4441 24.7559 16.5934 24.0986 16.9468C23.4413 17.3002 22.9044 17.8417 22.5566 18.502C22.2088 19.1623 22.0659 19.9113 22.1463 20.6533C22.2266 21.3952 22.5265 22.0963 23.0075 22.6669C21.5124 24.2225 19.64 25.3646 17.5725 25.9819C17.3297 25.2252 16.8529 24.5651 16.2109 24.0968C15.5688 23.6285 14.7947 23.3762 14 23.3762C13.2053 23.3762 12.4312 23.6285 11.7891 24.0968C11.1471 24.5651 10.6703 25.2252 10.4275 25.9819Z" stroke="#6146C6" stroke-width="2" stroke-linejoin="round"/>
<path d="M14 18.375C14.5745 18.375 15.1434 18.2618 15.6742 18.042C16.205 17.8221 16.6873 17.4998 17.0936 17.0936C17.4998 16.6873 17.8221 16.205 18.042 15.6742C18.2618 15.1434 18.375 14.5745 18.375 14C18.375 13.4255 18.2618 12.8566 18.042 12.3258C17.8221 11.795 17.4998 11.3127 17.0936 10.9064C16.6873 10.5002 16.205 10.1779 15.6742 9.95803C15.1434 9.73816 14.5745 9.625 14 9.625C12.8397 9.625 11.7269 10.0859 10.9064 10.9064C10.0859 11.7269 9.625 12.8397 9.625 14C9.625 15.1603 10.0859 16.2731 10.9064 17.0936C11.7269 17.9141 12.8397 18.375 14 18.375V18.375Z" stroke="#6146C6" stroke-width="2" stroke-linejoin="round"/>
</svg>
