<svg width="16" height="21" viewBox="0 0 16 21" fill="none" xmlns="http://www.w3.org/2000/svg">
<path d="M12.6248 7.0752C12.6807 7.13093 12.725 7.19714 12.7552 7.27004C12.7855 7.34293 12.8011 7.42108 12.8011 7.5C12.8011 7.57892 12.7855 7.65706 12.7552 7.72996C12.725 7.80285 12.6807 7.86906 12.6248 7.9248L10.5248 10.0248C10.4155 10.134 10.2683 10.1968 10.1138 10.2001C9.95934 10.2035 9.80954 10.1471 9.69559 10.0428L8.79559 9.2208C8.68412 9.11207 8.61929 8.96426 8.6148 8.80861C8.6103 8.65296 8.6665 8.50166 8.77151 8.38668C8.87652 8.2717 9.02211 8.20204 9.17753 8.19244C9.33295 8.18283 9.48602 8.23402 9.60439 8.3352L10.0808 8.7696L11.7752 7.0752C11.8309 7.01932 11.8971 6.97499 11.97 6.94474C12.0429 6.91449 12.1211 6.89893 12.2 6.89893C12.2789 6.89893 12.3571 6.91449 12.4299 6.94474C12.5028 6.97499 12.5691 7.01932 12.6248 7.0752ZM3.79999 8.1C3.64086 8.1 3.48825 8.16321 3.37572 8.27573C3.2632 8.38826 3.19999 8.54087 3.19999 8.7C3.19999 8.85913 3.2632 9.01174 3.37572 9.12426C3.48825 9.23678 3.64086 9.3 3.79999 9.3H6.79999C6.95912 9.3 7.11173 9.23678 7.22425 9.12426C7.33677 9.01174 7.39999 8.85913 7.39999 8.7C7.39999 8.54087 7.33677 8.38826 7.22425 8.27573C7.11173 8.16321 6.95912 8.1 6.79999 8.1H3.79999ZM3.19999 14.7C3.19999 14.5409 3.2632 14.3883 3.37572 14.2757C3.48825 14.1632 3.64086 14.1 3.79999 14.1H6.79999C6.95912 14.1 7.11173 14.1632 7.22425 14.2757C7.33677 14.3883 7.39999 14.5409 7.39999 14.7C7.39999 14.8591 7.33677 15.0117 7.22425 15.1243C7.11173 15.2368 6.95912 15.3 6.79999 15.3H3.79999C3.64086 15.3 3.48825 15.2368 3.37572 15.1243C3.2632 15.0117 3.19999 14.8591 3.19999 14.7ZM4.50199 2.1C4.62612 1.7489 4.85609 1.44495 5.1602 1.23003C5.46431 1.01511 5.8276 0.899803 6.19999 0.899998H9.79999C10.1724 0.899803 10.5357 1.01511 10.8398 1.23003C11.1439 1.44495 11.3739 1.7489 11.498 2.1H13.4C13.8774 2.1 14.3352 2.28964 14.6728 2.62721C15.0103 2.96477 15.2 3.42261 15.2 3.9V18.3C15.2 18.7774 15.0103 19.2352 14.6728 19.5728C14.3352 19.9104 13.8774 20.1 13.4 20.1H2.59999C2.1226 20.1 1.66476 19.9104 1.3272 19.5728C0.98963 19.2352 0.799988 18.7774 0.799988 18.3V3.9C0.799988 3.42261 0.98963 2.96477 1.3272 2.62721C1.66476 2.28964 2.1226 2.1 2.59999 2.1H4.50199ZM6.19999 2.1C6.04086 2.1 5.88825 2.16321 5.77572 2.27573C5.6632 2.38826 5.59999 2.54087 5.59999 2.7C5.59999 2.85913 5.6632 3.01174 5.77572 3.12426C5.88825 3.23678 6.04086 3.3 6.19999 3.3H9.79999C9.95912 3.3 10.1117 3.23678 10.2243 3.12426C10.3368 3.01174 10.4 2.85913 10.4 2.7C10.4 2.54087 10.3368 2.38826 10.2243 2.27573C10.1117 2.16321 9.95912 2.1 9.79999 2.1H6.19999ZM4.50199 3.3H2.59999C2.44086 3.3 2.28825 3.36321 2.17572 3.47573C2.0632 3.58826 1.99999 3.74087 1.99999 3.9V18.3C1.99999 18.4591 2.0632 18.6117 2.17572 18.7243C2.28825 18.8368 2.44086 18.9 2.59999 18.9H13.4C13.5591 18.9 13.7117 18.8368 13.8243 18.7243C13.9368 18.6117 14 18.4591 14 18.3V3.9C14 3.74087 13.9368 3.58826 13.8243 3.47573C13.7117 3.36321 13.5591 3.3 13.4 3.3H11.498C11.3739 3.65109 11.1439 3.95504 10.8398 4.16996C10.5357 4.38488 10.1724 4.50019 9.79999 4.5H6.19999C5.8276 4.50019 5.46431 4.38488 5.1602 4.16996C4.85609 3.95504 4.62612 3.65109 4.50199 3.3Z" fill="white"/>
</svg>
