<svg width="20" height="20" viewBox="0 0 20 20" fill="none" xmlns="http://www.w3.org/2000/svg">
<path d="M19.6 10C19.6 12.5461 18.5886 14.9879 16.7882 16.7882C14.9879 18.5886 12.5461 19.6 9.99999 19.6C7.45392 19.6 5.01212 18.5886 3.21177 16.7882C1.41142 14.9879 0.399994 12.5461 0.399994 10C0.399994 7.45392 1.41142 5.01213 3.21177 3.21178C5.01212 1.41143 7.45392 0.400002 9.99999 0.400002C12.5461 0.400002 14.9879 1.41143 16.7882 3.21178C18.5886 5.01213 19.6 7.45392 19.6 10ZM5.19999 10C5.19999 10.1591 5.26321 10.3117 5.37573 10.4243C5.48825 10.5368 5.64086 10.6 5.79999 10.6H9.39999V14.2C9.39999 14.3591 9.46321 14.5117 9.57573 14.6243C9.68825 14.7368 9.84086 14.8 9.99999 14.8C10.1591 14.8 10.3117 14.7368 10.4243 14.6243C10.5368 14.5117 10.6 14.3591 10.6 14.2V10.6H14.2C14.3591 10.6 14.5117 10.5368 14.6243 10.4243C14.7368 10.3117 14.8 10.1591 14.8 10C14.8 9.84087 14.7368 9.68826 14.6243 9.57574C14.5117 9.46322 14.3591 9.4 14.2 9.4H10.6V5.8C10.6 5.64087 10.5368 5.48826 10.4243 5.37574C10.3117 5.26322 10.1591 5.2 9.99999 5.2C9.84086 5.2 9.68825 5.26322 9.57573 5.37574C9.46321 5.48826 9.39999 5.64087 9.39999 5.8V9.4H5.79999C5.64086 9.4 5.48825 9.46322 5.37573 9.57574C5.26321 9.68826 5.19999 9.84087 5.19999 10Z" fill="#10B6CD"/>
</svg>
