<svg width="24" height="25" viewBox="0 0 24 25" fill="none" xmlns="http://www.w3.org/2000/svg">
<path d="M17.91 5.5H5.91L7.21 4.21C7.3983 4.0217 7.50409 3.7663 7.50409 3.5C7.50409 3.2337 7.3983 2.97831 7.21 2.79C7.0217 2.6017 6.7663 2.49591 6.5 2.49591C6.2337 2.49591 5.9783 2.6017 5.79 2.79L2.79 5.79C2.69627 5.88297 2.62188 5.99357 2.57111 6.11543C2.52034 6.23728 2.4942 6.36799 2.4942 6.5C2.4942 6.63201 2.52034 6.76272 2.57111 6.88458C2.62188 7.00644 2.69627 7.11704 2.79 7.21L5.79 10.21C5.88296 10.3037 5.99356 10.3781 6.11542 10.4289C6.23728 10.4797 6.36799 10.5058 6.5 10.5058C6.63201 10.5058 6.76272 10.4797 6.88458 10.4289C7.00644 10.3781 7.11704 10.3037 7.21 10.21C7.30373 10.117 7.37812 10.0064 7.42889 9.88458C7.47966 9.76272 7.5058 9.63201 7.5058 9.5C7.5058 9.36799 7.47966 9.23728 7.42889 9.11543C7.37812 8.99357 7.30373 8.88297 7.21 8.79L5.91 7.5H17.91C18.1149 7.49602 18.3185 7.53245 18.5093 7.60719C18.7001 7.68194 18.8743 7.79354 19.022 7.93562C19.1696 8.0777 19.2878 8.24748 19.3698 8.43525C19.4519 8.62303 19.4961 8.82513 19.5 9.03V11.5C19.5 11.7652 19.6054 12.0196 19.7929 12.2071C19.9804 12.3946 20.2348 12.5 20.5 12.5C20.7652 12.5 21.0196 12.3946 21.2071 12.2071C21.3946 12.0196 21.5 11.7652 21.5 11.5V9.03C21.4961 8.56249 21.4001 8.10033 21.2176 7.66991C21.035 7.23949 20.7695 6.84925 20.4361 6.52145C20.1028 6.19366 19.7081 5.93474 19.2747 5.75948C18.8412 5.58422 18.3775 5.49605 17.91 5.5ZM18.21 14.79C18.0217 14.6017 17.7663 14.4959 17.5 14.4959C17.2337 14.4959 16.9783 14.6017 16.79 14.79C16.6017 14.9783 16.4959 15.2337 16.4959 15.5C16.4959 15.7663 16.6017 16.0217 16.79 16.21L18.09 17.5H6.09C5.88513 17.504 5.68148 17.4676 5.49069 17.3928C5.29989 17.3181 5.1257 17.2065 4.97804 17.0644C4.83039 16.9223 4.71218 16.7525 4.63015 16.5648C4.54813 16.377 4.5039 16.1749 4.5 15.97V13.5C4.5 13.2348 4.39464 12.9804 4.20711 12.7929C4.01957 12.6054 3.76522 12.5 3.5 12.5C3.23478 12.5 2.98043 12.6054 2.79289 12.7929C2.60536 12.9804 2.5 13.2348 2.5 13.5V15.97C2.50392 16.4375 2.59989 16.8997 2.78244 17.3301C2.96498 17.7605 3.23051 18.1508 3.56388 18.4786C3.89724 18.8063 4.29191 19.0653 4.72534 19.2405C5.15878 19.4158 5.62249 19.504 6.09 19.5H18.09L16.79 20.79C16.6963 20.883 16.6219 20.9936 16.5711 21.1154C16.5203 21.2373 16.4942 21.368 16.4942 21.5C16.4942 21.632 16.5203 21.7627 16.5711 21.8846C16.6219 22.0064 16.6963 22.117 16.79 22.21C16.883 22.3037 16.9936 22.3781 17.1154 22.4289C17.2373 22.4797 17.368 22.5058 17.5 22.5058C17.632 22.5058 17.7627 22.4797 17.8846 22.4289C18.0064 22.3781 18.117 22.3037 18.21 22.21L21.21 19.21C21.3037 19.117 21.3781 19.0064 21.4289 18.8846C21.4797 18.7627 21.5058 18.632 21.5058 18.5C21.5058 18.368 21.4797 18.2373 21.4289 18.1154C21.3781 17.9936 21.3037 17.883 21.21 17.79L18.21 14.79Z" fill="white"/>
</svg>
