<svg width="30" height="30" viewBox="0 0 30 30" fill="none" xmlns="http://www.w3.org/2000/svg">
<path d="M26.6667 30H3.33333C2.44928 30 1.60143 29.6839 0.976311 29.1213C0.351189 28.5587 0 27.7956 0 27V6C0 5.20435 0.351189 4.44129 0.976311 3.87868C1.60143 3.31607 2.44928 3 3.33333 3H6.66667V0H10V3H20V0H23.3333V3H26.6667C27.5507 3 28.3986 3.31607 29.0237 3.87868C29.6488 4.44129 30 5.20435 30 6V27C30 27.7956 29.6488 28.5587 29.0237 29.1213C28.3986 29.6839 27.5507 30 26.6667 30ZM3.33333 12V27H26.6667V12H3.33333ZM3.33333 6V9H26.6667V6H3.33333ZM23.3333 24H20V21H23.3333V24ZM16.6667 24H13.3333V21H16.6667V24ZM10 24H6.66667V21H10V24ZM23.3333 18H20V15H23.3333V18ZM16.6667 18H13.3333V15H16.6667V18ZM10 18H6.66667V15H10V18Z" fill="#001641"/>
</svg>
