<svg width="24" height="24" viewBox="0 0 24 24" fill="none" xmlns="http://www.w3.org/2000/svg">
<path d="M10.6248 7.37521C10.6807 7.43094 10.725 7.49715 10.7553 7.57005C10.7855 7.64294 10.8011 7.72109 10.8011 7.80001C10.8011 7.87893 10.7855 7.95707 10.7553 8.02997C10.725 8.10286 10.6807 8.16907 10.6248 8.22481L8.22481 10.6248C8.16907 10.6807 8.10286 10.725 8.02997 10.7553C7.95707 10.7855 7.87893 10.8011 7.80001 10.8011C7.72109 10.8011 7.64294 10.7855 7.57005 10.7553C7.49715 10.725 7.43094 10.6807 7.37521 10.6248L6.17521 9.42481C6.06254 9.31214 5.99925 9.15934 5.99925 9.00001C5.99925 8.84068 6.06254 8.68787 6.17521 8.57521C6.28787 8.46254 6.44068 8.39925 6.60001 8.39925C6.75934 8.39925 6.91214 8.46254 7.02481 8.57521L7.80001 9.35161L9.77521 7.37521C9.83094 7.31933 9.89715 7.275 9.97005 7.24475C10.0429 7.2145 10.1211 7.19893 10.2 7.19893C10.2789 7.19893 10.3571 7.2145 10.43 7.24475C10.5029 7.275 10.5691 7.31933 10.6248 7.37521V7.37521ZM10.6248 13.3752C10.6807 13.4309 10.725 13.4972 10.7553 13.57C10.7855 13.6429 10.8011 13.7211 10.8011 13.8C10.8011 13.8789 10.7855 13.9571 10.7553 14.03C10.725 14.1029 10.6807 14.1691 10.6248 14.2248L8.22481 16.6248C8.16907 16.6807 8.10286 16.725 8.02997 16.7553C7.95707 16.7855 7.87893 16.8011 7.80001 16.8011C7.72109 16.8011 7.64294 16.7855 7.57005 16.7553C7.49715 16.725 7.43094 16.6807 7.37521 16.6248L6.17521 15.4248C6.11942 15.369 6.07517 15.3028 6.04498 15.2299C6.01479 15.157 5.99925 15.0789 5.99925 15C5.99925 14.9211 6.01479 14.843 6.04498 14.7701C6.07517 14.6972 6.11942 14.631 6.17521 14.5752C6.28787 14.4625 6.44068 14.3992 6.60001 14.3992C6.6789 14.3992 6.75702 14.4148 6.82991 14.445C6.90279 14.4752 6.96902 14.5194 7.02481 14.5752L7.80001 15.3516L9.77521 13.3752C9.83094 13.3193 9.89715 13.275 9.97005 13.2448C10.0429 13.2145 10.1211 13.1989 10.2 13.1989C10.2789 13.1989 10.3571 13.2145 10.43 13.2448C10.5029 13.275 10.5691 13.3193 10.6248 13.3752ZM12 9.00001C12 8.84088 12.0632 8.68826 12.1757 8.57574C12.2883 8.46322 12.4409 8.40001 12.6 8.40001H16.2C16.3591 8.40001 16.5117 8.46322 16.6243 8.57574C16.7368 8.68826 16.8 8.84088 16.8 9.00001C16.8 9.15914 16.7368 9.31175 16.6243 9.42427C16.5117 9.53679 16.3591 9.60001 16.2 9.60001H12.6C12.4409 9.60001 12.2883 9.53679 12.1757 9.42427C12.0632 9.31175 12 9.15914 12 9.00001ZM6.60001 3.60001C5.80436 3.60001 5.04129 3.91608 4.47869 4.47869C3.91608 5.04129 3.60001 5.80436 3.60001 6.60001V17.4C3.60001 18.1957 3.91608 18.9587 4.47869 19.5213C5.04129 20.0839 5.80436 20.4 6.60001 20.4H11.52C11.3238 20.0165 11.1658 19.6145 11.0484 19.2H6.60001C6.12262 19.2 5.66478 19.0104 5.32721 18.6728C4.98965 18.3352 4.80001 17.8774 4.80001 17.4V6.60001C4.80001 6.12262 4.98965 5.66478 5.32721 5.32721C5.66478 4.98965 6.12262 4.80001 6.60001 4.80001H17.4C17.8774 4.80001 18.3352 4.98965 18.6728 5.32721C19.0104 5.66478 19.2 6.12262 19.2 6.60001V11.0484C19.6188 11.1672 20.0196 11.3244 20.4 11.52V6.60001C20.4 5.80436 20.0839 5.04129 19.5213 4.47869C18.9587 3.91608 18.1957 3.60001 17.4 3.60001H6.60001ZM17.4 22.8C18.8322 22.8 20.2057 22.2311 21.2184 21.2184C22.2311 20.2057 22.8 18.8322 22.8 17.4C22.8 15.9678 22.2311 14.5943 21.2184 13.5816C20.2057 12.5689 18.8322 12 17.4 12C15.9678 12 14.5943 12.5689 13.5816 13.5816C12.5689 14.5943 12 15.9678 12 17.4C12 18.8322 12.5689 20.2057 13.5816 21.2184C14.5943 22.2311 15.9678 22.8 17.4 22.8V22.8ZM17.4 14.4C17.5591 14.4 17.7117 14.4632 17.8243 14.5757C17.9368 14.6883 18 14.8409 18 15V16.8H19.8C19.9591 16.8 20.1117 16.8632 20.2243 16.9757C20.3368 17.0883 20.4 17.2409 20.4 17.4C20.4 17.5591 20.3368 17.7117 20.2243 17.8243C20.1117 17.9368 19.9591 18 19.8 18H18V19.8C18 19.9591 17.9368 20.1117 17.8243 20.2243C17.7117 20.3368 17.5591 20.4 17.4 20.4C17.2409 20.4 17.0883 20.3368 16.9757 20.2243C16.8632 20.1117 16.8 19.9591 16.8 19.8V18H15C14.8409 18 14.6883 17.9368 14.5757 17.8243C14.4632 17.7117 14.4 17.5591 14.4 17.4C14.4 17.2409 14.4632 17.0883 14.5757 16.9757C14.6883 16.8632 14.8409 16.8 15 16.8H16.8V15C16.8 14.8409 16.8632 14.6883 16.9757 14.5757C17.0883 14.4632 17.2409 14.4 17.4 14.4Z" fill="black"/>
</svg>
